<svg xmlns="http://www.w3.org/2000/svg" width="800" height="600" viewBox="0 0 800 600">
  <defs>
    <linearGradient id="primary-gradient" x1="0%" y1="0%" x2="100%" y2="100%">
      <stop offset="0%" stop-color="#4361ee" />
      <stop offset="100%" stop-color="#3a56d4" />
    </linearGradient>
    <linearGradient id="secondary-gradient" x1="0%" y1="0%" x2="100%" y2="100%">
      <stop offset="0%" stop-color="#ff6b6b" />
      <stop offset="100%" stop-color="#e05555" />
    </linearGradient>
    <linearGradient id="accent-gradient" x1="0%" y1="0%" x2="100%" y2="100%">
      <stop offset="0%" stop-color="#4cd964" />
      <stop offset="100%" stop-color="#36b04a" />
    </linearGradient>
    <filter id="shadow" x="-10%" y="-10%" width="120%" height="120%">
      <feDropShadow dx="4" dy="4" stdDeviation="8" flood-opacity="0.2" />
    </filter>
  </defs>
  
  <!-- Background elements -->
  <circle cx="650" cy="150" r="100" fill="#f5f7ff" />
  <circle cx="150" cy="450" r="120" fill="#e9f0ff" />
  
  <!-- Main illustration elements -->
  <!-- Computer/Platform -->
  <rect x="250" y="250" width="300" height="200" rx="10" fill="white" stroke="#e9ecef" stroke-width="2" filter="url(#shadow)" />
  <rect x="250" y="250" width="300" height="25" rx="8" fill="#f8f9fa" />
  <circle cx="265" cy="262" r="5" fill="#ff6b6b" />
  <circle cx="285" cy="262" r="5" fill="#ffcc00" />
  <circle cx="305" cy="262" r="5" fill="#4cd964" />
  
  <!-- Screen content - educational platform -->
  <rect x="270" y="290" width="260" height="30" rx="4" fill="#f8f9fa" />
  <rect x="270" y="335" width="120" height="80" rx="4" fill="url(#primary-gradient)" />
  <rect x="410" y="335" width="120" height="38" rx="4" fill="url(#secondary-gradient)" />
  <rect x="410" y="377" width="120" height="38" rx="4" fill="url(#accent-gradient)" />
  
  <!-- Connected people -->
  <!-- Educational seeker -->
  <circle cx="150" cy="280" r="40" fill="white" stroke="#e9ecef" stroke-width="2" filter="url(#shadow)" />
  <circle cx="150" cy="250" r="15" fill="#4361ee" />
  <rect x="130" y="270" width="40" height="30" rx="8" fill="#4361ee" />
  
  <!-- Sponsor -->
  <circle cx="650" cy="280" r="40" fill="white" stroke="#e9ecef" stroke-width="2" filter="url(#shadow)" />
  <circle cx="650" cy="250" r="15" fill="#ff6b6b" />
  <rect x="630" y="270" width="40" height="30" rx="8" fill="#ff6b6b" />
  
  <!-- Connection lines -->
  <path d="M195 280 Q 250 220 270 260" stroke="#4361ee" stroke-width="3" stroke-dasharray="5,5" fill="none" />
  <path d="M605 280 Q 550 220 530 260" stroke="#ff6b6b" stroke-width="3" stroke-dasharray="5,5" fill="none" />
  
  <!-- Handshake/Connection symbol -->
  <circle cx="400" cy="180" r="50" fill="white" stroke="#e9ecef" stroke-width="2" filter="url(#shadow)" />
  <path d="M370 180 L 390 200 L 430 160" stroke="#4cd964" stroke-width="6" stroke-linecap="round" stroke-linejoin="round" fill="none" />
  
  <!-- Connecting dots animation suggestion -->
  <circle cx="230" cy="240" r="5" fill="#4361ee" />
  <circle cx="270" cy="220" r="5" fill="#4361ee" />
  <circle cx="310" cy="200" r="5" fill="#4361ee" />
  
  <circle cx="570" cy="240" r="5" fill="#ff6b6b" />
  <circle cx="530" cy="220" r="5" fill="#ff6b6b" />
  <circle cx="490" cy="200" r="5" fill="#ff6b6b" />
  
  <!-- Sponzy logo suggestion -->
  <rect x="350" y="100" width="100" height="40" rx="20" fill="url(#primary-gradient)" filter="url(#shadow)" />
  <text x="400" y="127" font-family="Arial, sans-serif" font-size="22" font-weight="bold" text-anchor="middle" fill="white">Sponzy</text>
  
  <!-- Small educational/sponsorship icons -->
  <circle cx="200" cy="150" r="20" fill="white" stroke="#e9ecef" stroke-width="2" />
  <text x="200" y="155" font-family="Arial, sans-serif" font-size="14" text-anchor="middle" fill="#4361ee">🎓</text>
  
  <circle cx="600" cy="150" r="20" fill="white" stroke="#e9ecef" stroke-width="2" />
  <text x="600" y="155" font-family="Arial, sans-serif" font-size="14" text-anchor="middle" fill="#ff6b6b">💼</text>
  
  <circle cx="250" cy="100" r="20" fill="white" stroke="#e9ecef" stroke-width="2" />
  <text x="250" y="105" font-family="Arial, sans-serif" font-size="14" text-anchor="middle" fill="#4cd964">🔬</text>
  
  <circle cx="550" cy="100" r="20" fill="white" stroke="#e9ecef" stroke-width="2" />
  <text x="550" y="105" font-family="Arial, sans-serif" font-size="14" text-anchor="middle" fill="#ffcc00">💰</text>
  
  <!-- Platform support column -->
  <rect x="380" y="450" width="40" height="100" rx="4" fill="#e9ecef" />
</svg> 