<?xml version="1.0" encoding="UTF-8"?>
<svg width="800" height="600" viewBox="0 0 800 600" fill="none" xmlns="http://www.w3.org/2000/svg">
    <!-- Background -->
    <rect width="800" height="600" fill="#F3F4F6"/>
    
    <!-- Decorative Elements -->
    <circle cx="100" cy="100" r="50" fill="#E5E7EB" opacity="0.5"/>
    <circle cx="700" cy="500" r="80" fill="#E5E7EB" opacity="0.5"/>
    <circle cx="400" cy="300" r="120" fill="#E5E7EB" opacity="0.3"/>
    
    <!-- Main Illustration -->
    <g transform="translate(200, 150)">
        <!-- Building -->
        <rect x="0" y="0" width="400" height="300" fill="#FFFFFF" stroke="#3B82F6" stroke-width="4"/>
        <rect x="50" y="50" width="300" height="200" fill="#F3F4F6" stroke="#3B82F6" stroke-width="2"/>
        
        <!-- Windows -->
        <g transform="translate(70, 70)">
            <rect x="0" y="0" width="40" height="40" fill="#3B82F6" opacity="0.2"/>
            <rect x="60" y="0" width="40" height="40" fill="#3B82F6" opacity="0.2"/>
            <rect x="120" y="0" width="40" height="40" fill="#3B82F6" opacity="0.2"/>
            <rect x="180" y="0" width="40" height="40" fill="#3B82F6" opacity="0.2"/>
        </g>
        
        <!-- Door -->
        <rect x="175" y="250" width="50" height="50" fill="#3B82F6"/>
        
        <!-- People -->
        <g transform="translate(100, 200)">
            <!-- Person 1 -->
            <circle cx="0" cy="0" r="15" fill="#3B82F6"/>
            <rect x="-5" y="15" width="10" height="30" fill="#3B82F6"/>
            <rect x="-15" y="45" width="30" height="10" fill="#3B82F6"/>
            
            <!-- Person 2 -->
            <circle cx="40" cy="0" r="15" fill="#3B82F6"/>
            <rect x="35" y="15" width="10" height="30" fill="#3B82F6"/>
            <rect x="25" y="45" width="30" height="10" fill="#3B82F6"/>
        </g>
    </g>
    
    <!-- Text Elements -->
    <text x="400" y="100" text-anchor="middle" font-family="Arial" font-size="48" font-weight="bold" fill="#1F2937">
        Connect with Sponsors
    </text>
    <text x="400" y="150" text-anchor="middle" font-family="Arial" font-size="24" fill="#4B5563">
        Find the perfect sponsorship for your event
    </text>
</svg> 